<svg width="206" height="150" viewBox="0 0 206 150" fill="none" xmlns="http://www.w3.org/2000/svg">
<path d="M104 62C102.641 61.7401 101.757 60.356 102 59C102.243 57.6441 103.641 56.7393 105 57C106.359 57.2607 107.243 58.6441 107 60C106.757 61.356 105.359 62.2607 104 62Z" fill="#F9FCFF"/>
<path d="M129 45C128.448 45.002 128.002 44.5522 128 44C127.997 43.4478 128.448 43.002 129 43C129.553 42.998 129.998 43.4478 130 44C130.002 44.5522 129.552 44.997 129 45Z" fill="#F9FCFF"/>
<path d="M120 30H126L125 7H121L120 30Z" fill="#903E97"/>
<path d="M121 3C121.076 4.58729 122.043 6 123 6C124.033 6 125.331 5.41837 125 4C124.685 2.65303 122.37 2.53374 122 0C122 0 120.92 1.33783 121 3Z" fill="#FEC00F"/>
<path d="M124 6C123.161 5.94114 122.067 4.8041 122 3C121.961 1.9352 122.637 0.723246 123 0C123.34 2.56124 124.72 2.62664 125 4C125.241 5.18163 124.743 5.70303 124 6Z" fill="#FFC928"/>
<path d="M126 7.00002C126 7.18904 126.192 8.96036 126 9.00002C125.821 9.03715 125.078 8.15951 125 8.00002C124.937 7.8726 125.144 8.02449 125 8.00002C124.89 7.98146 125.072 7.91732 125 8.00002C124.895 8.11985 124.119 8.10803 124 8.00002C123.881 7.89285 124.108 8.11731 124 8.00002C123.778 7.75699 123.011 7.60932 123 8.00002C122.995 8.17554 123.021 7.82534 123 8.00002C122.931 8.58227 123.034 8.52405 123 8.00002C122.988 7.80087 122.182 8.09537 122 8.00002C121.827 7.90804 122.08 7.82619 122 8.00002C121.803 8.42616 122.033 8.53422 122 9.00002C121.987 9.1941 122.131 9.8515 122 10C121.87 10.1477 121.176 10.0962 121 10C120.784 9.88019 120.916 9.22617 121 9.00002C121.085 8.77556 120.954 9.23545 121 9.00002C121.062 8.67514 121.082 8.32068 121 8.00002C120.877 7.51987 121.576 6.28018 122 6.00002C122.259 5.82872 121.689 5.95445 122 6.00002C122.555 6.08018 123.465 6.03799 124 6.00002C124.25 5.98314 124.749 5.98145 125 6.00002C126.185 6.092 126 6.64645 126 7.00002Z" fill="#F9FCFF"/>
<path d="M123 6.92292C122.99 7.02776 123.447 7.0236 123.417 6.92292C123.284 6.4686 123.209 5.42183 123.209 5.42183H123.073C123.073 5.42183 123.022 6.67995 123 6.92292Z" fill="#6D4C41"/>
<path d="M138.168 30.1193H142.758L141.84 12.8851H139.085L138.168 30.1193Z" fill="#EA417B"/>
<path d="M103.64 30.1193H108.23L107.312 12.8851H104.558L103.64 30.1193Z" fill="#FEC00F"/>
<path d="M104.338 10.0095C104.394 11.1395 105.17 11.9574 105.874 11.9574C106.635 11.9574 107.481 11.236 107.237 10.2258C107.006 9.26726 105.672 9.49026 105.399 7.68713C105.399 7.68713 104.279 8.82625 104.338 10.0095Z" fill="#FEC00F"/>
<path d="M106.299 11.8776C105.608 11.836 104.866 10.9273 104.812 9.6742C104.779 8.93364 105.105 8.20972 105.403 7.70797C105.684 9.48698 107.007 9.27147 107.237 10.2259C107.436 11.048 106.911 11.6704 106.299 11.8776Z" fill="#FFC928"/>
<path d="M107.681 13.3102C107.681 13.4492 107.553 14.193 107.419 14.2213C107.293 14.2488 107.178 14.139 107.122 14.0216C107.078 13.9284 107.007 13.6355 106.906 13.6172C106.829 13.6039 106.805 13.7171 106.754 13.7778C106.681 13.8669 106.532 13.8344 106.448 13.7554C106.365 13.6763 106.319 13.5656 106.244 13.4791C106.087 13.3002 105.858 13.3302 105.85 13.6164C105.847 13.7462 105.875 13.876 105.86 14.005C105.812 14.4318 105.349 14.3703 105.325 13.9858C105.315 13.8394 105.354 13.6505 105.225 13.5798C105.104 13.5132 104.961 13.638 104.906 13.7645C104.768 14.0774 104.847 14.4385 104.825 14.7813C104.816 14.9228 104.785 15.0709 104.693 15.1807C104.601 15.2897 104.435 15.3446 104.313 15.2739C104.16 15.1865 104.149 14.966 104.208 14.8005C104.268 14.6357 104.378 14.4876 104.41 14.3154C104.453 14.0765 104.341 13.8411 104.284 13.6048C104.198 13.2536 104.261 12.8267 104.558 12.6212C104.74 12.4956 104.974 12.4265 105.191 12.459C105.58 12.518 105.942 12.4032 106.317 12.3758C106.493 12.3624 106.669 12.3674 106.844 12.3816C107.676 12.449 107.681 13.0506 107.681 13.3102Z" fill="#F9FCFF"/>
<path d="M105.78 12.6495C105.772 12.7277 106.112 12.7244 106.09 12.6495C105.991 12.3117 105.934 11.5312 105.934 11.5312H105.834C105.834 11.5312 105.796 12.4681 105.78 12.6495Z" fill="#6D4C41"/>
<path d="M86.8384 75.9857H159.56C159.56 75.9857 168.322 40.2675 159.56 35.0778C145.299 26.6321 98.3518 26.4307 86.8384 35.0778C78.6907 41.1969 86.8384 75.9857 86.8384 75.9857Z" fill="#FFECB1"/>
<path d="M75.5525 139H171.119C171.119 139 182.454 83.5847 170.939 76.7649C152.199 65.6657 90.5027 65.4019 75.373 76.7649C64.6655 84.807 75.5525 139 75.5525 139Z" fill="#FFECB1"/>
<path d="M163.976 39.4046C166.544 42.8969 167.537 46.5473 167.644 51.306C167.761 56.4832 165.703 58.6583 163.851 58.6674C162.346 58.6766 161.224 54.3215 160.274 52.8104C158.963 50.7252 156.586 50.3932 154.876 51.9533C154.067 52.6922 153.318 56.4142 152.413 56.95C151.824 57.2978 151.153 57.6049 150.538 57.3419C148.702 56.5539 149.566 52.9219 149.62 51.7969C149.861 46.8685 145.094 43.3321 142.446 45.3857C140.973 46.529 141.149 49.2266 140.628 51.3043C139.215 56.9309 132.902 57.2396 131.151 51.7628C130.699 50.3491 130.663 48.7814 130.312 47.3253C129.598 44.368 127.432 41.9974 124.988 41.7195C122.543 41.4408 120.003 43.4053 119.238 46.3417C118.658 48.5684 119.034 51.1637 117.494 52.9477C116.155 54.502 114.03 54.6168 112.629 53.154C111.225 51.6904 111.023 49.2815 110.378 47.2113C109.785 45.3091 108.332 43.4078 106.774 43.9753C103.96 47.079 106.832 54.4371 103.377 56.8069C102.499 57.4085 99.584 58.1041 97.3576 56.7453C93.3996 54.3306 97.9053 50.7651 93.0852 48.3987C92.3555 48.04 91.524 48.07 90.8431 48.5593C87.983 50.6178 88.8153 57.0815 85.443 58.526C84.4494 58.952 83.349 58.7382 82.4356 58.0875C78.936 55.5929 78.2501 47.3785 80.2341 42.8645C81.2434 40.5662 82.755 38.3545 84.7348 37.5291C120.014 22.8186 158.386 33.5717 163.976 39.4046Z" fill="#EA417B"/>
<path d="M175.326 82.8032C180.004 87.4213 179.208 98.6719 179.853 107.189C180.058 109.889 180.171 112.812 179.331 115.113C178.491 117.413 176.324 118.467 175.207 116.456C174.278 114.784 174.559 112.198 174.637 109.947C174.75 106.691 174.149 103.03 172.472 101.295C170.794 99.5589 168.056 101.208 168.068 104.473C168.075 106.731 169.293 108.892 168.867 111.02C168.403 113.337 166.257 113.392 165.184 111.674C164.111 109.958 163.825 107.337 163.555 104.914C163.286 102.491 162.898 99.8618 161.722 98.3466C160.052 96.1948 157.613 97.3339 155.901 99.2868C154.191 101.238 152.73 103.937 150.755 105.022C148.427 106.3 145.63 104.864 144.094 101.603C143.369 100.062 142.925 98.2218 142.387 96.4844C141.622 94.0189 140.566 91.6125 139.034 90.5283C137.504 89.4441 135.436 90.2013 134.781 92.7092C134.219 94.8618 134.825 97.3414 134.961 99.6987C135.1 102.115 134.659 104.727 133.523 106.201C132.386 107.675 130.505 107.579 129.613 105.637C128.744 103.748 129.056 101.113 128.957 98.7568C128.741 93.6054 125.931 88.8908 122.841 88.9948C119.752 89.0996 117.106 94.5256 117.929 99.5223C118.247 101.46 118.984 103.137 119.472 104.979C119.96 106.822 120.165 109.11 119.459 110.703C118.954 111.84 118.08 112.375 117.227 112.473C115.487 112.673 113.695 111.159 112.744 108.686C112.104 107.024 111.846 105.057 111.543 103.157C111.054 100.086 110.378 96.9562 109.02 94.7037C107.662 92.4513 105.462 91.3388 103.817 92.8623C102.587 94.0014 101.925 96.298 101.513 98.5471C100.453 104.328 100.312 111.355 97.3801 114.872C96.9044 115.442 96.3369 115.896 95.7478 115.798C94.7136 115.625 94.0219 113.828 93.8308 112.12C93.6389 110.414 93.7771 108.645 93.5628 106.945C93.2269 104.274 91.966 101.957 90.4023 101.136C88.8386 100.316 87.0375 101.027 85.8875 102.92C83.3558 107.085 84.0624 115.692 80.7886 118.048C80.3029 118.397 79.7304 118.548 79.2431 118.177C77.7448 117.033 78.4224 112.599 77.0217 111.143C75.108 109.152 72.7451 115.551 70.9034 113.376C70.4029 112.783 70.1886 111.736 70.0207 110.756C68.7821 103.535 68.3809 95.4543 70.4914 88.929C71.9335 84.469 74.327 80.9019 77.0928 78.7826C95.9505 64.3392 161.714 69.3667 175.326 82.8032Z" fill="#F37D20"/>
<path d="M163.976 37.075C166.544 40.5673 167.537 44.2177 167.644 48.9755C167.761 54.1536 165.703 56.3278 163.851 56.3378C162.346 56.3462 161.224 51.9918 160.274 50.4808C158.963 48.3956 156.586 48.0636 154.876 49.6237C154.067 50.3626 153.318 54.0837 152.413 54.6196C151.824 54.9682 151.153 55.2753 150.538 55.0115C148.702 54.2243 149.566 50.5923 149.62 49.4673C149.861 44.538 145.094 41.0025 142.446 43.0552C140.973 44.1993 141.149 46.897 140.628 48.9739C139.215 54.6013 132.902 54.91 131.151 49.4332C130.699 48.0195 130.663 46.4518 130.312 44.9948C129.598 42.0376 127.432 39.6678 124.988 39.3891C122.543 39.1111 120.003 41.0757 119.238 44.0121C118.658 46.2388 119.034 48.8341 117.494 50.6181C116.155 52.1724 114.03 52.2872 112.629 50.8244C111.225 49.3608 111.023 46.9511 110.378 44.8808C109.785 42.9787 108.332 41.0782 106.774 41.6457C103.96 44.7494 106.832 52.1067 103.377 54.4765C102.499 55.0789 99.584 55.7745 97.3576 54.4157C93.3996 52.001 97.9053 48.4355 93.0852 46.069C92.3555 45.7104 91.524 45.7404 90.8431 46.2296C87.983 48.2882 88.8153 54.7519 85.443 56.1964C84.4494 56.6224 83.349 56.4086 82.4356 55.757C78.936 53.2624 78.2501 45.0489 80.2341 40.5348C81.2434 38.2366 82.755 36.0249 84.7348 35.1987C120.014 20.4882 158.386 31.2421 163.976 37.075Z" fill="#EE5FA2"/>
<path d="M175.326 78.7745C180.004 83.3925 179.208 94.6432 179.853 103.16C180.058 105.861 180.171 108.784 179.331 111.084C178.491 113.384 176.324 114.439 175.207 112.427C174.278 110.756 174.559 108.169 174.637 105.918C174.75 102.663 174.149 99.0017 172.472 97.2659C170.794 95.5302 168.056 97.1794 168.068 100.444C168.075 102.702 169.293 104.863 168.867 106.991C168.403 109.308 166.257 109.363 165.184 107.645C164.111 105.929 163.825 103.309 163.555 100.886C163.286 98.4625 162.898 95.8331 161.722 94.3178C160.052 92.1661 157.613 93.3052 155.901 95.2581C154.191 97.2093 152.73 99.9086 150.755 100.994C148.427 102.271 145.63 100.836 144.094 97.5738C143.369 96.0336 142.925 94.193 142.387 92.4565C141.622 89.9902 140.566 87.5838 139.034 86.4996C137.504 85.4153 135.436 86.1725 134.781 88.6805C134.219 90.8331 134.825 93.3127 134.961 95.6692C135.1 98.0864 134.659 100.698 133.523 102.172C132.386 103.647 130.505 103.55 129.613 101.609C128.744 99.7189 129.056 97.0845 128.957 94.7281C128.741 89.5766 125.931 84.862 122.841 84.966C119.752 85.0709 117.106 90.4969 117.929 95.4936C118.247 97.4315 118.984 99.1082 119.472 100.95C119.96 102.793 120.165 105.081 119.459 106.674C118.954 107.811 118.08 108.346 117.227 108.444C115.487 108.644 113.695 107.13 112.744 104.657C112.104 102.996 111.846 101.029 111.543 99.1281C111.054 96.0569 110.378 92.9274 109.02 90.675C107.662 88.4225 105.462 87.31 103.817 88.8336C102.587 89.9727 101.925 92.2692 101.513 94.5184C100.453 100.3 100.312 107.326 97.3801 110.843C96.9044 111.413 96.3369 111.867 95.7478 111.769C94.7136 111.596 94.0219 109.8 93.8308 108.091C93.6389 106.385 93.7771 104.617 93.5628 102.916C93.2269 100.245 91.966 97.9283 90.4023 97.107C88.8386 96.2874 87.0375 96.9988 85.8875 98.891C83.3558 103.057 84.0624 111.664 80.7886 114.019C80.3029 114.368 79.7304 114.519 79.2431 114.148C77.7448 113.004 78.4224 108.57 77.0217 107.115C75.108 105.123 72.7451 111.522 70.9034 109.347C70.4029 108.755 70.1886 107.707 70.0207 106.727C68.7821 99.5067 68.3809 91.4255 70.4914 84.9003C71.9335 80.4403 74.327 76.8731 77.0928 74.7538C95.9505 60.3096 161.714 65.3379 175.326 78.7745Z" fill="#F7961D"/>
<g opacity="0.100006">
<path d="M80.4548 75.7216C80.4548 77.0571 99.4051 72.2376 122.783 72.2376C146.159 72.2376 165.11 77.0571 165.11 75.7216C165.11 74.3861 146.159 68.4649 122.783 68.4649C99.4051 68.4649 80.4548 74.3861 80.4548 75.7216Z" fill="white"/>
</g>
<path d="M89.4061 58.7474C89.4061 59.4314 89.958 59.9864 90.6389 59.9864C91.3198 59.9864 91.8708 59.4314 91.8708 58.7474C91.8708 58.0626 91.3198 57.5076 90.6389 57.5076C89.958 57.5076 89.4061 58.0626 89.4061 58.7474Z" fill="#EE5FA2"/>
<path d="M128.643 59.4186C128.643 60.1034 129.195 60.6584 129.875 60.6584C130.556 60.6584 131.107 60.1034 131.107 59.4186C131.107 58.7347 130.556 58.1797 129.875 58.1797C129.195 58.1797 128.643 58.7347 128.643 59.4186Z" fill="#EE5FA2"/>
<path d="M100.877 61.8978C100.877 62.5826 101.429 63.1376 102.109 63.1376C102.79 63.1376 103.342 62.5826 103.342 61.8978C103.342 61.2138 102.79 60.6588 102.109 60.6588C101.429 60.6588 100.877 61.2138 100.877 61.8978Z" fill="#EE5FA2"/>
<path d="M115.085 60.6587C115.085 61.3427 115.636 61.8977 116.317 61.8977C116.998 61.8977 117.549 61.3427 117.549 60.6587C117.549 59.9739 116.998 59.4189 116.317 59.4189C115.636 59.4189 115.085 59.9739 115.085 60.6587Z" fill="#F9FCFF"/>
<path d="M107.227 57.5465C107.227 57.9167 107.525 58.218 107.894 58.218C108.263 58.218 108.562 57.9167 108.562 57.5465C108.562 57.1754 108.263 56.8741 107.894 56.8741C107.525 56.8741 107.227 57.1754 107.227 57.5465Z" fill="#F9FCFF"/>
<path d="M91.2039 64.7386C91.2039 65.1097 91.5025 65.4101 91.8715 65.4101C92.2397 65.4101 92.5392 65.1097 92.5392 64.7386C92.5392 64.3683 92.2397 64.0671 91.8715 64.0671C91.5025 64.0671 91.2039 64.3683 91.2039 64.7386Z" fill="#F9FCFF"/>
<path d="M123.833 51.6552C123.833 52.0255 124.131 52.3267 124.5 52.3267C124.869 52.3267 125.168 52.0255 125.168 51.6552C125.168 51.2849 124.869 50.9837 124.5 50.9837C124.131 50.9837 123.833 51.2849 123.833 51.6552Z" fill="#F9FCFF"/>
<g opacity="0.149994">
<path d="M94.4728 34.6022C94.4728 35.8221 107.354 31.8455 123.242 31.8455C139.131 31.8455 152.012 35.8221 152.012 34.6022C152.012 33.3832 139.131 28.766 123.242 28.766C107.354 28.766 94.4728 33.3832 94.4728 34.6022Z" fill="white"/>
</g>
<g opacity="0.149994">
<path d="M86.5217 37.4999C86.6847 37.9451 88.2211 37.7862 89.9519 37.1438C91.6835 36.5023 92.9543 35.6211 92.7913 35.1759C92.6283 34.7316 91.0928 34.8897 89.362 35.5321C87.6295 36.1736 86.3587 37.0548 86.5217 37.4999Z" fill="white"/>
</g>
<mask id="mask0_301_271" style="mask-type:alpha" maskUnits="userSpaceOnUse" x="172" y="123" width="33" height="27">
<path d="M204.13 147.684L174.26 149.107L172.837 124.926L202.708 123.504L204.13 147.684Z" fill="#E81F64"/>
</mask>
<g mask="url(#mask0_301_271)">
<path d="M204.13 147.684L174.259 149.107L172.837 124.926L202.708 123.504L204.13 147.684Z" fill="#E81F64"/>
<path d="M194.173 110.702L161.458 143.417L160.035 141.995L192.751 109.28L194.173 110.702Z" fill="#F9FCFF"/>
<path d="M198.44 114.969L165.725 147.684L164.303 146.262L197.018 113.547L198.44 114.969Z" fill="#F9FCFF"/>
<path d="M202.708 117.814L169.992 150.529L168.57 149.107L201.285 116.392L202.708 117.814Z" fill="#F9FCFF"/>
<path d="M206.975 122.081L174.26 154.796L172.837 153.374L205.552 120.659L206.975 122.081Z" fill="#F9FCFF"/>
<path d="M209.82 124.926L177.104 157.641L175.682 156.219L208.397 123.504L209.82 124.926Z" fill="#F9FCFF"/>
<path d="M214.087 129.193L181.372 161.908L179.949 160.486L212.664 127.771L214.087 129.193Z" fill="#F9FCFF"/>
<path d="M218.354 132.038L185.639 164.753L184.216 163.331L216.932 130.616L218.354 132.038Z" fill="#F9FCFF"/>
</g>
<path d="M205.552 123.504L169.992 124.926V117.814L205.552 116.392V123.504Z" fill="#E81F64"/>
<path d="M187.061 114.969C187.061 114.969 180.207 105.167 184.216 103.59C184.216 103.59 182.195 103.694 181.371 103.59C180.439 103.472 179.652 104.214 179.949 106.435C180.616 111.405 187.061 116.392 187.061 116.392V114.969Z" fill="#DFE0DF"/>
<path d="M188.484 116.392C188.484 116.392 191.645 108.628 188.484 105.012C187.871 104.312 186.567 103.711 185.639 103.59H182.794C182.794 103.59 189.408 104.626 187.061 114.969L188.484 116.392Z" fill="#F9FCFF"/>
<path d="M185.639 116.392C185.639 116.392 175.079 112.844 177.104 109.28C177.104 109.28 174.954 110.271 174.259 110.702C173.473 111.189 174.012 112.16 175.682 113.547C179.419 116.649 187.061 116.392 187.061 116.392H185.639Z" fill="#DFE0DF"/>
<path d="M187.061 116.392C187.061 116.392 184.878 108.529 179.949 107.857C178.994 107.727 177.912 107.374 177.104 107.857L174.259 110.702C174.259 110.702 180.442 107.454 185.639 116.392H187.061Z" fill="#F9FCFF"/>
<path d="M188.484 116.392C188.484 116.392 199.401 111.622 197.018 107.857C197.018 107.857 199.111 108.86 199.863 109.279C200.713 109.754 200.045 111.892 198.44 113.547C194.851 117.251 187.061 116.392 187.061 116.392H188.484Z" fill="#DFE0DF"/>
<path d="M187.061 116.392C187.061 116.392 189.102 107.557 194.173 106.435C195.155 106.218 196.136 105.962 197.018 106.435L199.863 109.28C199.863 109.28 193.123 106.096 188.484 116.392H187.061Z" fill="#F9FCFF"/>
<path d="M179.949 122.081H181.371H182.794C182.794 122.081 181.429 115.12 185.639 116.391V114.969C185.601 114.903 185.711 114.993 185.639 114.969C184.549 114.604 179.844 114.016 179.949 122.081Z" fill="#F9FCFF"/>
<path d="M194.173 122.081L192.751 120.659L191.328 122.081C191.328 122.081 192.792 115.647 188.484 116.391V114.969C189.693 114.916 193.75 113.746 194.173 122.081Z" fill="#F9FCFF"/>
<path d="M189.906 124.926H185.639V117.814H189.906V124.926Z" fill="#F4F4F5"/>
<path d="M189.906 149.107H187.061L185.639 124.926H188.484L189.906 149.107Z" fill="#F4F4F5"/>
<g opacity="0.339996">
<path d="M202.708 124.926L172.837 126.348V124.926L202.708 123.504V124.926Z" fill="#1F1F1F"/>
</g>
<mask id="mask1_301_271" style="mask-type:alpha" maskUnits="userSpaceOnUse" x="123" y="108" width="45" height="41">
<path d="M164.069 148.1L123.038 143.62L126.706 108.221L167.737 112.701L164.069 148.1Z" fill="#E81F64"/>
</mask>
<g mask="url(#mask1_301_271)">
<path d="M164.479 147.722L123.449 143.242L127.117 107.843L168.147 112.323L164.479 147.722Z" fill="#9747FF"/>
<path d="M157.72 92.2794L107.377 132.444L104.968 129.222L155.311 89.0576L157.72 92.2794Z" fill="#F9FCFF"/>
<path d="M161.988 97.969L111.644 138.134L109.235 134.912L159.578 94.7473L161.988 97.969Z" fill="#F9FCFF"/>
<path d="M167.677 103.659L117.334 143.823L114.924 140.602L165.268 100.437L167.677 103.659Z" fill="#F9FCFF"/>
<path d="M171.944 109.348L121.601 149.513L119.192 146.291L169.535 106.126L171.944 109.348Z" fill="#F9FCFF"/>
<path d="M176.212 115.038L125.868 155.203L123.459 151.981L173.802 111.816L176.212 115.038Z" fill="#F9FCFF"/>
<path d="M181.901 122.15L131.558 162.315L129.148 159.093L179.492 118.928L181.901 122.15Z" fill="#F9FCFF"/>
<path d="M186.168 127.839L135.825 168.004L133.416 164.782L183.759 124.618L186.168 127.839Z" fill="#F9FCFF"/>
</g>
<path d="M172.53 113.555L123.053 107.857L124.677 96.5944L174.155 102.293L172.53 113.555Z" fill="#9747FF"/>
<path d="M148.757 97.9136C148.757 97.9136 141.09 81.8643 146.97 80.4105C146.97 80.4105 145.275 80.3181 144.154 80.0044C142.886 79.65 140.775 80.5871 140.73 83.8218C140.629 91.0604 148.554 99.3215 148.554 99.3215L148.757 97.9136Z" fill="#DFE0DF"/>
<path d="M148.583 98.9154C148.583 98.9154 155.86 89.4326 152.225 83.6322C151.521 82.5088 149.668 80.5668 148.407 80.2075L144.184 79.5984C144.184 79.5984 152.763 82.9863 147.379 97.3046L148.583 98.9154Z" fill="#F9FCFF"/>
<path d="M147.262 97.5065C147.262 97.5065 132.303 91.0511 136.013 85.8243C136.013 85.8243 134.086 86.2872 132.994 86.8261C131.759 87.4346 130.111 89.9176 132.182 92.4574C136.816 98.14 148.467 99.1174 148.467 99.1174L147.262 97.5065Z" fill="#DFE0DF"/>
<path d="M149.889 99.1173C149.889 99.1173 148.764 87.0393 141.862 85.0255C140.525 84.6356 138.694 85.2729 137.435 85.8242L132.805 88.0308C132.805 88.0308 141.557 84.3714 147.073 98.7112L149.889 99.1173Z" fill="#F9FCFF"/>
<path d="M150.267 98.1179C150.267 98.1179 167.163 94.7639 164.562 88.6825C164.562 88.6825 166.19 89.7186 167.174 90.4964C168.288 91.376 169.01 94.0016 166.362 96.1277C160.437 100.887 148.656 99.3227 148.656 99.3227L150.267 98.1179Z" fill="#DFE0DF"/>
<path d="M148.656 99.3227C148.656 99.3227 152.213 87.0849 159.133 86.4625C160.473 86.3423 162.086 87.6425 163.154 88.4794L167.174 90.4964C167.174 90.4964 158.286 85.8511 150.064 99.5257L148.656 99.3227Z" fill="#F9FCFF"/>
<path d="M137.277 106.435L138.888 105.23L140.093 106.841C140.093 106.841 140.947 96.543 146.942 99.2059L147.145 97.7981C147.102 97.6977 145.84 97.6443 145.737 97.595C144.192 96.8562 138.733 95.2361 137.277 106.435Z" fill="#F9FCFF"/>
<path d="M158.526 109.075L157.321 107.464L155.71 108.669C155.71 108.669 157.842 99.3009 151.297 99.4101L151.5 98.0022C153.306 98.1882 159.563 97.4348 158.526 109.075Z" fill="#F9FCFF"/>
<path d="M150.02 110.092L144.389 109.279L146.013 98.0168L151.645 98.8289L150.02 110.092Z" fill="#F4F4F5"/>
<path d="M145.753 145.652L141.53 145.043L145.198 109.644L149.421 110.253L145.753 145.652Z" fill="#F4F4F5"/>
<g opacity="0.339996">
<path d="M168.35 115.182L127.32 110.702L127.726 107.886L168.756 112.366L168.35 115.182Z" fill="#1F1F1F"/>
</g>
<mask id="mask2_301_271" style="mask-type:alpha" maskUnits="userSpaceOnUse" x="1" y="78" width="36" height="29">
<path d="M1.57871 105.241L34.7312 106.82L36.3099 79.9822L3.1574 78.4035L1.57871 105.241Z" fill="#E81F64"/>
</mask>
<g mask="url(#mask2_301_271)">
<path d="M1.57871 105.241L34.7312 106.82L36.3099 79.9822L3.1574 78.4035L1.57871 105.241Z" fill="#E81F64"/>
<path d="M12.6295 64.1953L48.9394 100.505L50.5181 98.9265L14.2082 62.6166L12.6295 64.1953Z" fill="#F9FCFF"/>
<path d="M7.89344 68.9314L44.2033 105.241L45.782 103.663L9.47213 67.3527L7.89344 68.9314Z" fill="#F9FCFF"/>
<path d="M3.15736 72.0888L39.4672 108.399L41.0459 106.82L4.73605 70.5101L3.15736 72.0888Z" fill="#F9FCFF"/>
<path d="M-1.57867 76.8249L34.7312 113.135L36.3099 111.556L2.34842e-05 75.2462L-1.57867 76.8249Z" fill="#F9FCFF"/>
<path d="M-4.73614 79.9822L31.5737 116.292L33.1524 114.713L-3.15745 78.4035L-4.73614 79.9822Z" fill="#F9FCFF"/>
<path d="M-9.47216 84.7183L26.8377 121.028L28.4164 119.449L-7.89347 83.1396L-9.47216 84.7183Z" fill="#F9FCFF"/>
<path d="M-14.2082 87.8757L22.1016 124.186L23.6803 122.607L-12.6296 86.297L-14.2082 87.8757Z" fill="#F9FCFF"/>
</g>
<path d="M-3.33786e-06 78.4035L39.4672 79.9822V72.0887L-3.33786e-06 70.51V78.4035Z" fill="#E81F64"/>
<path d="M20.523 68.9314C20.523 68.9314 28.13 58.0524 23.6804 56.3019C23.6804 56.3019 25.9233 56.4176 26.8377 56.3019C27.873 56.1714 28.7466 56.9942 28.4164 59.4592C27.6763 64.9753 20.523 70.5101 20.523 70.5101V68.9314Z" fill="#DFE0DF"/>
<path d="M18.9443 70.5101C18.9443 70.5101 15.4355 61.8931 18.9443 57.8806C19.6237 57.1034 21.0714 56.4368 22.1017 56.3019H25.259C25.259 56.3019 17.9179 57.4517 20.523 68.9314L18.9443 70.5101Z" fill="#F9FCFF"/>
<path d="M22.1016 70.51C22.1016 70.51 33.8217 66.5725 31.5738 62.6166C31.5738 62.6166 33.96 63.7172 34.7312 64.1953C35.6039 64.7354 35.006 65.814 33.1525 67.3527C29.0051 70.7953 20.523 70.51 20.523 70.51H22.1016Z" fill="#DFE0DF"/>
<path d="M20.5229 70.5101C20.5229 70.5101 22.9458 61.7837 28.4164 61.0379C29.4759 60.8936 30.6769 60.5013 31.5738 61.0379L34.7311 64.1953C34.7311 64.1953 27.8694 60.591 22.1016 70.5101H20.5229Z" fill="#F9FCFF"/>
<path d="M18.9443 70.51C18.9443 70.51 6.82677 65.2168 9.47213 61.0379C9.47213 61.0379 7.14909 62.151 6.31475 62.6166C5.37139 63.1432 6.11271 65.5159 7.89344 67.3526C11.8774 71.4635 20.5229 70.51 20.5229 70.51H18.9443Z" fill="#DFE0DF"/>
<path d="M20.5229 70.5101C20.5229 70.5101 18.2575 60.7053 12.6295 59.4592C11.5399 59.2183 10.4512 58.9341 9.47213 59.4592L6.31475 62.6166C6.31475 62.6166 13.7952 59.0831 18.9443 70.5101H20.5229Z" fill="#F9FCFF"/>
<path d="M28.4164 76.8248H26.8377H25.259C25.259 76.8248 26.7737 69.099 22.1017 70.51V68.9313C22.1435 68.8574 22.0209 68.9583 22.1017 68.9313C23.3111 68.5264 28.533 67.873 28.4164 76.8248Z" fill="#F9FCFF"/>
<path d="M12.6295 76.8248L14.2082 75.2461L15.7869 76.8248C15.7869 76.8248 14.1625 69.6837 18.9443 70.51V68.9313C17.6016 68.8728 13.0992 67.5736 12.6295 76.8248Z" fill="#F9FCFF"/>
<path d="M17.3656 79.9822H22.1017V72.0887H17.3656V79.9822Z" fill="#F4F4F5"/>
<path d="M17.3656 106.82H20.523L22.1017 79.9822H18.9443L17.3656 106.82Z" fill="#F4F4F5"/>
<g opacity="0.339996">
<path d="M3.1574 79.9822L36.3099 81.5609V79.9822L3.1574 78.4035V79.9822Z" fill="#1F1F1F"/>
</g>
<mask id="mask3_301_271" style="mask-type:alpha" maskUnits="userSpaceOnUse" x="41" y="61" width="51" height="45">
<path d="M46.0417 105.703L91.5802 100.73L87.5092 61.442L41.9707 66.4144L46.0417 105.703Z" fill="#E81F64"/>
</mask>
<g mask="url(#mask3_301_271)">
<path d="M45.5859 105.283L91.1244 100.31L87.0534 61.0217L41.5149 65.9941L45.5859 105.283Z" fill="#9747FF"/>
<path d="M53.0874 43.7486L108.962 88.3263L111.636 84.7506L55.7617 40.1729L53.0874 43.7486Z" fill="#F9FCFF"/>
<path d="M48.3514 50.0634L104.226 94.6411L106.9 91.0653L51.0257 46.4876L48.3514 50.0634Z" fill="#F9FCFF"/>
<path d="M42.0367 56.3781L97.9112 100.956L100.586 97.3801L44.711 52.8024L42.0367 56.3781Z" fill="#F9FCFF"/>
<path d="M37.3006 62.6928L93.1751 107.271L95.8495 103.695L39.975 59.1171L37.3006 62.6928Z" fill="#F9FCFF"/>
<path d="M32.5645 69.0076L88.439 113.585L91.1134 110.01L35.2389 65.4319L32.5645 69.0076Z" fill="#F9FCFF"/>
<path d="M26.2498 76.9011L82.1243 121.479L84.7986 117.903L28.9241 73.3253L26.2498 76.9011Z" fill="#F9FCFF"/>
<path d="M21.5137 83.2158L77.3882 127.793L80.0626 124.218L24.188 79.64L21.5137 83.2158Z" fill="#F9FCFF"/>
</g>
<path d="M36.6505 67.3623L91.5641 61.0379L89.7614 48.5377L34.8477 54.8622L36.6505 67.3623Z" fill="#9747FF"/>
<path d="M63.0355 50.0019C63.0355 50.0019 71.5455 32.1891 65.0189 30.5756C65.0189 30.5756 66.9007 30.4731 68.144 30.1249C69.5516 29.7315 71.8943 30.7717 71.9451 34.3618C72.0568 42.3957 63.2608 51.5644 63.2608 51.5644L63.0355 50.0019Z" fill="#DFE0DF"/>
<path d="M63.2284 51.1138C63.2284 51.1138 55.1524 40.589 59.1871 34.1514C59.9683 32.9045 62.0242 30.7491 63.424 30.3503L68.1116 29.6743C68.1116 29.6743 58.589 33.4345 64.5656 49.3259L63.2284 51.1138Z" fill="#F9FCFF"/>
<path d="M64.6949 49.55C64.6949 49.55 81.2974 42.3853 77.1803 36.5843C77.1803 36.5843 79.319 37.098 80.5307 37.6961C81.9018 38.3715 83.7305 41.1273 81.432 43.9462C76.2889 50.2531 63.3578 51.3379 63.3578 51.3379L64.6949 49.55Z" fill="#DFE0DF"/>
<path d="M61.7792 51.3378C61.7792 51.3378 63.0274 37.9327 70.6888 35.6977C72.1726 35.2649 74.2046 35.9723 75.6017 36.5842L80.7399 39.0332C80.7399 39.0332 71.0264 34.9717 64.9042 50.8871L61.7792 51.3378Z" fill="#F9FCFF"/>
<path d="M61.3598 50.2286C61.3598 50.2286 42.6071 46.5061 45.4943 39.7565C45.4943 39.7565 43.6877 40.9064 42.5946 41.7697C41.3587 42.746 40.5569 45.6601 43.496 48.0198C50.0718 53.3016 63.1476 51.5658 63.1476 51.5658L61.3598 50.2286Z" fill="#DFE0DF"/>
<path d="M63.1476 51.5658C63.1476 51.5658 59.2003 37.9834 51.5191 37.2926C50.032 37.1592 48.2419 38.6022 47.0569 39.5312L42.5946 41.7697C42.5946 41.7697 52.4598 36.614 61.5851 51.7911L63.1476 51.5658Z" fill="#F9FCFF"/>
<path d="M75.7773 59.4593L73.9894 58.1221L72.6522 59.9099C72.6522 59.9099 71.7043 48.4807 65.0501 51.4362L64.8247 49.8736C64.8721 49.7623 66.2728 49.7029 66.3873 49.6483C68.102 48.8282 74.1615 47.0301 75.7773 59.4593Z" fill="#F9FCFF"/>
<path d="M52.1938 62.39L53.5309 60.6021L55.3188 61.9393C55.3188 61.9393 52.9525 51.5416 60.2169 51.6628L59.9915 50.1002C57.9864 50.3066 51.0424 49.4704 52.1938 62.39Z" fill="#F9FCFF"/>
<path d="M61.6337 63.5179L67.8838 62.6166L66.0811 50.1164L59.831 51.0178L61.6337 63.5179Z" fill="#F4F4F5"/>
<path d="M66.3698 102.985L71.0573 102.309L66.9863 63.0207L62.2988 63.6967L66.3698 102.985Z" fill="#F4F4F5"/>
<g opacity="0.339996">
<path d="M41.2895 69.1676L86.8281 64.1953L86.3774 61.0702L40.8388 66.0426L41.2895 69.1676Z" fill="#1F1F1F"/>
</g>
</svg>
