<svg width="495" height="142" viewBox="0 0 495 142" fill="none" xmlns="http://www.w3.org/2000/svg">
<path d="M29.3853 111.049C19.5373 111.049 9.736 110.639 0 109.812L0.126666 108.319C107.321 117.425 216.221 76.932 291.427 -1.3726e-05L292.497 1.04799C255.637 38.7547 209.209 68.7053 158.233 87.66C116.704 103.103 72.6827 111.049 29.3853 111.049Z" fill="#832E4F"/>
<path d="M66.8625 108.379L91.0371 140.647C92.5131 142.618 95.6051 142.07 96.3131 139.711L107.909 101.095C108.552 98.9539 106.712 96.8859 104.509 97.2766L68.7398 103.625C66.5385 104.015 65.5211 106.59 66.8625 108.379Z" fill="#EF5B7D"/>
<g opacity="0.300003">
<path d="M76.6432 102.222L71.2965 114.299L72.8418 116.36L79.3112 101.748L76.6432 102.222Z" fill="#FFFFE8"/>
<path d="M82.4302 113.155C84.3436 108.929 86.3036 104.597 88.0809 100.191L85.4609 100.657C83.8436 104.574 82.0956 108.445 80.3822 112.229L76.3756 121.078L77.9142 123.131L82.4302 113.155Z" fill="#FFFFE8"/>
<path d="M92.4492 99.4171C89.4932 109.27 85.9625 118.969 81.8705 128.413L83.4132 130.47C87.9065 120.23 91.7705 109.694 94.9358 98.9758L92.4492 99.4171Z" fill="#FFFFE8"/>
<path d="M104.213 97.3291L101.66 97.7825C97.0934 110.304 92.1241 122.768 86.8214 135.021L88.3721 137.09C94.0574 124.021 99.3628 110.705 104.213 97.3291Z" fill="#FFFFE8"/>
</g>
<path d="M114.389 100.512L141.514 130.343C143.171 132.164 146.197 131.325 146.678 128.909L154.559 89.3681C154.997 87.1761 152.969 85.2921 150.813 85.8894L115.806 95.6001C113.653 96.1987 112.885 98.8574 114.389 100.512Z" fill="#0CBBD3"/>
<g opacity="0.300003">
<path d="M123.542 93.4549L119.364 105.984L121.098 107.891L126.152 92.7309L123.542 93.4549Z" fill="#FFFFE8"/>
<path d="M130.339 103.791C131.843 99.4014 133.385 94.9014 134.735 90.3494L132.171 91.0614C130.933 95.1147 129.559 99.1334 128.213 103.061L125.063 112.252L126.79 114.149L130.339 103.791Z" fill="#FFFFE8"/>
<path d="M139.01 89.1639C137.002 99.2519 134.406 109.244 131.23 119.033L132.958 120.935C136.462 110.315 139.309 99.4599 141.444 88.4892L139.01 89.1639Z" fill="#FFFFE8"/>
<path d="M150.523 85.9698L148.025 86.6632C144.665 99.5605 140.901 112.441 136.785 125.141L138.525 127.054C142.943 113.504 146.963 99.7458 150.523 85.9698Z" fill="#FFFFE8"/>
</g>
<path d="M161.477 86.7166L192.072 112.977C193.941 114.581 196.84 113.375 197.02 110.918L199.969 70.7073C200.132 68.4766 197.888 66.8579 195.822 67.7166L162.28 81.6673C160.214 82.5259 159.781 85.2606 161.477 86.7166Z" fill="#FFAE00"/>
<g opacity="0.300003">
<path d="M169.691 78.5851L167.089 91.5345L169.045 93.2131L172.192 77.5451L169.691 78.5851Z" fill="#FFFFE8"/>
<path d="M177.71 88.0045C178.662 83.4631 179.637 78.8085 180.417 74.1245L177.96 75.1458C177.23 79.3205 176.362 83.4778 175.51 87.5431L173.517 97.0511L175.464 98.7218L177.71 88.0045Z" fill="#FFFFE8"/>
<path d="M184.513 72.4204C183.764 82.6804 182.418 92.9151 180.472 103.02L182.424 104.695C184.59 93.7244 186.078 82.6017 186.845 71.4497L184.513 72.4204Z" fill="#FFFFE8"/>
<path d="M195.545 67.8326L193.152 68.8286C191.406 82.0419 189.257 95.2872 186.737 108.398L188.7 110.082C191.416 96.0912 193.71 81.9419 195.545 67.8326Z" fill="#FFFFE8"/>
</g>
<path d="M202.929 66.3454L236.136 89.2134C238.164 90.6107 240.918 89.1041 240.837 86.6427L239.506 46.3454C239.432 44.1108 237.029 42.7374 235.066 43.8108L203.192 61.2401C201.229 62.3121 201.088 65.0761 202.929 66.3454Z" fill="#793292"/>
<g opacity="0.300003">
<path d="M210.234 57.3892L209.021 70.5412L211.144 72.0012L212.612 56.0892L210.234 57.3892Z" fill="#FFFFE8"/>
<path d="M219.207 65.9049C219.672 61.2889 220.148 56.5569 220.427 51.8156L218.092 53.0929C217.81 57.3222 217.387 61.5476 216.971 65.6796L215.998 75.3449L218.11 76.7996L219.207 65.9049Z" fill="#FFFFE8"/>
<path d="M224.319 49.6873C224.662 59.9686 224.408 70.2873 223.544 80.5433L225.663 82.002C226.655 70.8633 226.955 59.6446 226.535 48.4753L224.319 49.6873Z" fill="#FFFFE8"/>
<path d="M234.802 43.9557L232.527 45.1997C232.194 58.5237 231.461 71.9223 230.345 85.2263L232.475 86.693C233.693 72.493 234.473 58.1797 234.802 43.9557Z" fill="#FFFFE8"/>
</g>
<path d="M465.112 111.049C474.96 111.049 484.761 110.639 494.497 109.812L494.371 108.319C387.176 117.425 278.276 76.932 203.071 -1.3726e-05L202 1.04799C238.86 38.7547 285.288 68.7053 336.264 87.66C377.793 103.103 421.815 111.049 465.112 111.049Z" fill="#832E4F"/>
<path d="M427.635 108.379L403.46 140.647C401.984 142.618 398.892 142.07 398.184 139.711L386.588 101.095C385.946 98.9539 387.786 96.8859 389.988 97.2766L425.758 103.625C427.959 104.015 428.976 106.59 427.635 108.379Z" fill="#EF5B7D"/>
<g opacity="0.300003">
<path d="M417.854 102.222L423.201 114.299L421.655 116.36L415.186 101.748L417.854 102.222Z" fill="#FFFFE8"/>
<path d="M412.067 113.155C410.154 108.929 408.194 104.597 406.416 100.191L409.036 100.657C410.654 104.574 412.402 108.445 414.115 112.229L418.122 121.078L416.583 123.131L412.067 113.155Z" fill="#FFFFE8"/>
<path d="M402.048 99.4171C405.004 109.27 408.535 118.969 412.627 128.413L411.084 130.47C406.591 120.23 402.727 109.694 399.561 98.9758L402.048 99.4171Z" fill="#FFFFE8"/>
<path d="M390.284 97.3291L392.837 97.7825C397.404 110.304 402.373 122.768 407.676 135.021L406.125 137.09C400.44 124.021 395.135 110.705 390.284 97.3291Z" fill="#FFFFE8"/>
</g>
<path d="M380.109 100.512L352.983 130.343C351.326 132.164 348.301 131.325 347.819 128.909L339.938 89.3681C339.501 87.1761 341.529 85.2921 343.685 85.8894L378.691 95.6001C380.845 96.1987 381.613 98.8574 380.109 100.512Z" fill="#0CBBD3"/>
<g opacity="0.300003">
<path d="M370.956 93.4549L375.133 105.984L373.4 107.891L368.345 92.7309L370.956 93.4549Z" fill="#FFFFE8"/>
<path d="M364.158 103.791C362.654 99.4014 361.113 94.9014 359.762 90.3494L362.326 91.0614C363.565 95.1147 364.938 99.1334 366.285 103.061L369.434 112.252L367.707 114.149L364.158 103.791Z" fill="#FFFFE8"/>
<path d="M355.487 89.1639C357.495 99.2519 360.091 109.244 363.267 119.033L361.539 120.935C358.035 110.315 355.188 99.4599 353.054 88.4892L355.487 89.1639Z" fill="#FFFFE8"/>
<path d="M343.974 85.9698L346.473 86.6632C349.833 99.5605 353.597 112.441 357.713 125.141L355.973 127.054C351.554 113.504 347.534 99.7458 343.974 85.9698Z" fill="#FFFFE8"/>
</g>
<path d="M333.02 86.7166L302.426 112.977C300.556 114.581 297.658 113.375 297.478 110.918L294.528 70.7073C294.366 68.4766 296.61 66.8579 298.675 67.7166L332.217 81.6673C334.283 82.5259 334.716 85.2606 333.02 86.7166Z" fill="#FFAE00"/>
<g opacity="0.300003">
<path d="M324.807 78.5851L327.408 91.5345L325.452 93.2131L322.305 77.5451L324.807 78.5851Z" fill="#FFFFE8"/>
<path d="M316.787 88.0045C315.835 83.4631 314.86 78.8085 314.08 74.1245L316.538 75.1458C317.267 79.3205 318.135 83.4778 318.987 87.5431L320.98 97.0511L319.034 98.7218L316.787 88.0045Z" fill="#FFFFE8"/>
<path d="M309.984 72.4204C310.734 82.6804 312.079 92.9151 314.026 103.02L312.074 104.695C309.907 93.7244 308.419 82.6017 307.652 71.4497L309.984 72.4204Z" fill="#FFFFE8"/>
<path d="M298.952 67.8326L301.346 68.8286C303.091 82.0419 305.24 95.2872 307.76 108.398L305.798 110.082C303.082 96.0912 300.787 81.9419 298.952 67.8326Z" fill="#FFFFE8"/>
</g>
<path d="M291.568 66.3454L258.362 89.2134C256.334 90.6107 253.579 89.1041 253.66 86.6427L254.991 46.3454C255.066 44.1108 257.468 42.7374 259.431 43.8108L291.306 61.2401C293.268 62.3121 293.41 65.0761 291.568 66.3454Z" fill="#793292"/>
<g opacity="0.300003">
<path d="M284.263 57.3892L285.476 70.5412L283.354 72.0012L281.886 56.0892L284.263 57.3892Z" fill="#FFFFE8"/>
<path d="M275.29 65.9049C274.825 61.2889 274.349 56.5569 274.07 51.8156L276.405 53.0929C276.688 57.3222 277.11 61.5476 277.526 65.6796L278.5 75.3449L276.388 76.7996L275.29 65.9049Z" fill="#FFFFE8"/>
<path d="M270.178 49.6873C269.836 59.9686 270.089 70.2873 270.953 80.5433L268.834 82.002C267.842 70.8633 267.542 59.6446 267.962 48.4753L270.178 49.6873Z" fill="#FFFFE8"/>
<path d="M259.695 43.9557L261.97 45.1997C262.303 58.5237 263.037 71.9223 264.153 85.2263L262.022 86.693C260.805 72.493 260.025 58.1797 259.695 43.9557Z" fill="#FFFFE8"/>
</g>
</svg>
